<svg xmlns="http://www.w3.org/2000/svg" data-name="Your Icon" viewBox="0 0 100 125" x="0px" y="0px"><path d="m73.57,55.41l-15.82-6.9c-3.48-1.52-6.24-4.28-7.76-7.77l-6.9-15.81c-.49-1.12-1.56-1.82-2.78-1.82s-2.29.7-2.78,1.82l-6.9,15.82c-1.52,3.48-4.28,6.24-7.77,7.76l-15.83,6.91c-1.12.49-1.82,1.55-1.82,2.77-.01,1.22.69,2.29,1.8,2.78l16.12,7.13c3.47,1.53,6.22,4.3,7.72,7.8l6.68,15.51c.49,1.13,1.55,1.83,2.78,1.84h.01c1.22,0,2.29-.7,2.78-1.82l6.89-15.8c1.52-3.48,4.28-6.24,7.76-7.76l15.82-6.9c1.12-.49,1.82-1.56,1.82-2.78s-.7-2.29-1.82-2.78Zm-1.2,2.81l-15.82,6.9c-4.18,1.82-7.49,5.13-9.31,9.31l-6.95,15.8-6.68-15.52c-1.81-4.19-5.1-7.51-9.27-9.36l-16.11-7.18,15.83-6.91c4.18-1.83,7.49-5.13,9.32-9.32l6.96-15.81,6.9,15.81c1.82,4.19,5.13,7.49,9.31,9.32l15.83,6.95h-.01Z"/><path d="m55.39,56.2c-.24.56-.79.9-1.37.9-.2,0-.41-.04-.6-.12-5.34-2.34-9.57-6.56-11.9-11.9-.33-.76.02-1.65.78-1.98.76-.33,1.64.02,1.97.78,2.03,4.64,5.7,8.32,10.35,10.35.76.33,1.11,1.21.77,1.97Z"/><path d="m93.36,25.47l-9.14-3.99c-1.86-.81-3.34-2.29-4.15-4.16l-3.99-9.13c-.38-.87-1.24-1.44-2.19-1.44s-1.81.57-2.18,1.44l-3.99,9.13c-.82,1.87-2.29,3.35-4.16,4.16l-9.15,3.99c-.87.38-1.43,1.24-1.43,2.18s.56,1.81,1.42,2.19l9.31,4.12c1.86.82,3.33,2.3,4.14,4.18l3.86,8.96c.37.87,1.23,1.44,2.18,1.44h.01c.95,0,1.8-.56,2.18-1.43l3.99-9.12c.81-1.87,2.29-3.35,4.15-4.16l9.14-3.99c.87-.38,1.43-1.24,1.43-2.19s-.56-1.8-1.43-2.18Z"/><path d="m79.81,26.1c-1.67-1.02-3.07-2.36-4.14-4-.45-.69-1.38-.89-2.08-.44-.69.45-.89,1.38-.44,2.08,1.32,2.02,3.03,3.68,5.09,4.93.24.15.51.22.78.22.51,0,1-.26,1.28-.72.43-.71.2-1.63-.5-2.06Z"/><text x="0" y="115" fill="#000000" font-size="5px" font-weight="bold" font-family="'Helvetica Neue', Helvetica, Arial-Unicode, Arial, Sans-serif">Created by emiliolonardo_design</text><text x="0" y="120" fill="#000000" font-size="5px" font-weight="bold" font-family="'Helvetica Neue', Helvetica, Arial-Unicode, Arial, Sans-serif">from the Noun Project</text></svg>